<?xml version="1.0" encoding="utf-8"?>
<!-- Generator: Adobe Illustrator 22.0.1, SVG Export Plug-In . SVG Version: 6.00 Build 0)  -->
<svg version="1.1" xmlns="http://www.w3.org/2000/svg" xmlns:xlink="http://www.w3.org/1999/xlink" x="0px" y="0px"
	 viewBox="0 0 300 300" style="enable-background:new 0 0 300 300;" xml:space="preserve">
<style type="text/css">
	.st0{display:none;}
	.st1{display:inline;fill:#1D427D;}
	.st2{clip-path:url(#SVGID_2_);}
	.st3{fill:#FFFFFF;}
	.st4{clip-path:url(#SVGID_4_);}
	.st5{fill:#1D427D;}
	.st6{clip-path:url(#SVGID_6_);}
	.st7{fill:none;stroke:#0B386A;stroke-width:0.4954;stroke-miterlimit:3.8636;}
	.st8{clip-path:url(#SVGID_8_);}
	.st9{clip-path:url(#SVGID_10_);}
	.st10{clip-path:url(#SVGID_12_);}
	.st11{fill:none;stroke:#0B386A;stroke-width:0.5804;stroke-miterlimit:3.8636;}
	.st12{clip-path:url(#SVGID_14_);}
	.st13{fill:none;stroke:#0B386A;stroke-width:0.4093;stroke-miterlimit:3.8636;}
	.st14{clip-path:url(#SVGID_16_);}
	.st15{clip-path:url(#SVGID_18_);}
	.st16{clip-path:url(#SVGID_20_);}
	.st17{clip-path:url(#SVGID_22_);}
</style>
<g id="Layer_2" class="st0">
	<rect class="st1" width="300" height="300"/>
</g>
<g id="Layer_1">
	<g>
		<g>
			<g>
				<defs>
					<path id="SVGID_1_" d="M150.4,77.1c-40.9,0-74.1,33.1-74.1,74s33.1,74,74.1,74c40.9,0,74-33.1,74-74
						C224.4,110.3,191.3,77.1,150.4,77.1z"/>
				</defs>
				<clipPath id="SVGID_2_">
					<use xlink:href="#SVGID_1_"  style="overflow:visible;"/>
				</clipPath>
				<g class="st2">
					<g>
						<path class="st3" d="M150.4,77.1c-40.9,0-74.1,33.1-74.1,74s33.1,74,74.1,74c40.9,0,74-33.1,74-74
							C224.4,110.3,191.3,77.1,150.4,77.1z"/>
					</g>
				</g>
			</g>
			<g>
				<defs>
					<path id="SVGID_3_" d="M150.4,77.1c-40.9,0-74.1,33.1-74.1,74s33.1,74,74.1,74c40.9,0,74-33.1,74-74
						C224.4,110.3,191.3,77.1,150.4,77.1z"/>
				</defs>
				<clipPath id="SVGID_4_">
					<use xlink:href="#SVGID_3_"  style="overflow:visible;"/>
				</clipPath>
				<g class="st4">
					<g>
						<path class="st5" d="M198.2,185.4c0,0,0.7-4.1,1.3-5.9c2.1-6,10.9-11,10.9-11s6.9-3.8,10.9-6.1c6-3.4,6.4-4,6.2-4.3
							c-0.3-0.7-4.4,1.7-11.1,3.9c-9.6,3.1-26.2,8.8-26.2,8.8s-24.7,2.6-40.4,4.9c-22.2,3.2-53.6,9.4-63,11.4
							c-1.7,0.3-5.8,0.5-5.1,1.6c0.2,0.5,4.4-0.3,8.5,0.3c5.3,0.8,11.2,5.1,13.2,6.9c10.1,9.2,32.1,11.9,51.2,7.7
							c19.1-4.1,36.1-7.5,38.1-17.7"/>
					</g>
				</g>
			</g>
			<g>
				<defs>
					<path id="SVGID_5_" d="M150.4,77.1c-40.9,0-74.1,33.1-74.1,74s33.1,74,74.1,74c40.9,0,74-33.1,74-74
						C224.4,110.3,191.3,77.1,150.4,77.1z"/>
				</defs>
				<clipPath id="SVGID_6_">
					<use xlink:href="#SVGID_5_"  style="overflow:visible;"/>
				</clipPath>
				<g class="st6">
					<g>
						<path class="st7" d="M209.4,157.2"/>
					</g>
				</g>
			</g>
			<g>
				<defs>
					<path id="SVGID_7_" d="M150.4,77.1c-40.9,0-74.1,33.1-74.1,74s33.1,74,74.1,74c40.9,0,74-33.1,74-74
						C224.4,110.3,191.3,77.1,150.4,77.1z"/>
				</defs>
				<clipPath id="SVGID_8_">
					<use xlink:href="#SVGID_7_"  style="overflow:visible;"/>
				</clipPath>
				<g class="st8">
					<g>
						<g>
							<path class="st5" d="M106.5,111.8l5.8,1.8c0,0,0.8,1.4,1.1,2.4c1,3.2,0.3,8.4,0.3,8.4s0.2-2.3-5.4-4.7c-1.8-0.8-5,0.2-5,0.2
								s2.6-2.7,3.1-4.8C106.7,113.8,106.5,111.8,106.5,111.8z"/>
						</g>
					</g>
					<g>
						<g>
							<path class="st5" d="M132.8,86.2c0.1,2-0.1,3.2-0.9,5.1c-0.7,1.9-1.4,2.9-2.8,4.3c2.2,0.3,3.5,0.7,5.5,1.8
								c2.5,1.3,3.8,2.3,5.6,4.5c0.7-2.7,0.6-4.4-0.2-7c-0.6-1.9-1.2-3-2.5-4.5c-0.8-0.9-1.3-1.4-2.2-2.2
								C134.4,87.3,133.8,86.9,132.8,86.2z"/>
						</g>
					</g>
					<g>
						<g>
							<path class="st5" d="M124.1,92.4c-0.8,1.5-0.5,1.6-1,2.5c-1.9,3.4-4,5.2-7.7,6.4c2.7-0.8,5.1-0.4,7.2,1.3
								c1.2,0.9,2,1.8,2.6,3.2c0.8-1.3,1.2-2.5,1.6-3.9c0.6-2.5,0.6-4.1,0-6.5v-0.1L124.1,92.4z"/>
						</g>
					</g>
					<g>
						<g>
							<path class="st5" d="M141.5,104.1l3.4,1.3c1.4,1.8,2,2.9,2.9,4.9c1.2,2.6,1.7,4.3,2,7.2c-1.4-0.8-5-2.8-7.5-2.4
								C143.9,112.4,144.6,108.7,141.5,104.1z"/>
						</g>
					</g>
					<g>
						<g>
							<path class="st5" d="M155.6,89.7l3.4,3.5c0.8,2.5,0.4,5,0,6.5c-0.3,1-0.9,2.1-1.4,2.8c0,0-1.3-0.9-2.2-1.4
								c-2.4-1.3-6.8-1.9-6.8-1.9s2.3-1.3,3.4-2.4C154.2,94.6,155.2,92.7,155.6,89.7z"/>
						</g>
					</g>
					<g>
						<g>
							<path class="st5" d="M161.6,94.2l3.7,2.3c0.9,1.7,4.4,6.6,3.9,11.3c-0.1,0.9-0.3,1.7-0.4,2.2c0,0-1.6-2.9-4.2-5
								c-1.6-1.2-5-1.2-5-1.2s1.4-1.4,2-3.5C162.3,97.9,162.1,95.6,161.6,94.2z"/>
						</g>
					</g>
					<g>
						<g>
							<path class="st5" d="M123.1,115.3c-1,2.6-1.8,4-3.5,6.1c-1.2-1.8-2.2-2.7-4-3.7c-2.7-1.6-4.7-2-7.7-1.6
								c3.9-1.1,6.1-2.5,8.7-5.6c1.4-1.7,2.1-2.8,2.9-4.8l4.9,2.2C124.4,110.8,124.1,112.5,123.1,115.3z"/>
						</g>
					</g>
					<g>
						<g>
							<path class="st5" d="M141.3,115.9l3.7,1.1c2.9,2.5,4.1,5,4.2,8.8c0.1,1.6-0.1,2.6-0.6,4.2c-0.3-0.6-0.6-1-1.1-1.4
								c-1.4-1.3-2.5-1.7-4.4-1.2C143.5,125.4,144.2,120.2,141.3,115.9z"/>
						</g>
					</g>
					<g>
						<g>
							<path class="st5" d="M155.5,121.6c-0.5-1.6-3.3-6-8.1-5.9c2.1-2.1,2.5-3.1,3.7-5.8c1.1-2.5,1.5-4.1,1.7-6.8l3.5,1.8
								C157.7,108.3,158.9,115,155.5,121.6z"/>
						</g>
					</g>
					<g>
						<g>
							<path class="st5" d="M158.6,105.3l6.8,4.3c0,0,2.8,2.3,4.2,5.2c1.1,2.2,2.6,6.5,2.3,8.9c-0.4,4.2-3.6,5.8-3.6,5.8
								s-0.9-4.1-4.6-5.8c-2.7-1.2-7-1.2-7-1.2s2.8-2.5,3.1-8.3C160.2,110.6,158.6,105.3,158.6,105.3z"/>
						</g>
					</g>
					<g>
						<g>
							<path class="st5" d="M103.3,121.5c0,0,2.6,0.5,4.1,1.2c2.3,1,5.9,3.7,5.9,3.7s0,1.8,0.3,3c0.8,3.2-0.2,8.4-0.2,8.4
								s-5.4-5.6-9.9-6c-2.2-0.2-5.7,0.8-5.7,0.8s4-4.3,5-7.8C103.1,123.5,103.3,121.5,103.3,121.5z"/>
						</g>
					</g>
					<g>
						<g>
							<path class="st5" d="M97.3,134.3l13.6,4.7c0,0,6.5,6.8,7.6,12.3c0.8,3.6,0.7,5.9-0.2,9.5c-3.8-2.5-6.2-3.6-10.5-5.1
								c-6.9-2.3-11.3-2.8-18.5-2.1c3.8-3.1,5.6-5.7,7.1-10.3C97.5,140,97.3,134.3,97.3,134.3z"/>
						</g>
					</g>
					<g>
						<g>
							<path class="st5" d="M142.9,138.4c0.7,3.9-0.2,10.3-0.2,10.3s-7.8-2.5-13-3.2c-8.3-1.2-20.9,0.3-20.9,0.3s8.2-7.2,10.2-13.4
								c1.1-3.4,1.2-8.9,1.2-8.9s8.7,0.9,13.9,2.9c2.6,1,6.5,3.2,6.5,3.2S142.3,134.6,142.9,138.4z"/>
						</g>
					</g>
					<g>
						<g>
							<path class="st5" d="M148.5,121.1l6.4,3.5c0.3,4.5,0,7.2-1.5,11.4c-2.1,6-5.4,10.4-5.4,10.4c-2.1-3.5-10.9-4.6-13.5-3.3
								C138.1,140.1,148.4,134.8,148.5,121.1z"/>
						</g>
					</g>
					<g>
						<g>
							<path class="st5" d="M87.9,155.7c6.6,1.3,10.9,1.1,17.4,3.3c4,1.3,6.8,2.7,10,4.3c2.3,2.4,3.4,4.2,4,7.2
								c0.5,2.4,0.7,4.5,0,7.3c-2.5-1.8-9.4-3.8-14.5-2.2c-4.1,1.3-8.2,3.6-10.7,7c2.2-4.4,3.9-9.2,3-13.9
								C96,162.7,93.4,159,87.9,155.7z"/>
						</g>
					</g>
					<g>
						<g>
							<path class="st5" d="M111,149.3l17.7,2.5c6.4,3.3,8.7,6.7,10.4,13.7c0.4,1.9,0.2,2.4,0.2,4.3c-1.7-0.3-4.3-0.1-7.3,0.5
								c-4.6,0.9-7.3,2.5-10.4,6c2.1-5,2.3-8.6,1-13.8C120.6,155.2,118.2,152.1,111,149.3z"/>
						</g>
					</g>
					<g>
						<g>
							<path class="st5" d="M143.5,151.7c0,0,4.2,3.1,7.3,6.9c3.4,4.2,2,13.8,2,13.8s-2.7-1.3-4.6-1.8c-4.9-1.4-13.9,0.8-13.9,0.8
								s1.9-6.3,1.2-10.3c-1.2-6.2-10.9-13-10.9-13C132.2,148.3,143.5,151.7,143.5,151.7z"/>
						</g>
					</g>
					<g>
						<g>
							<path class="st5" d="M162.5,149.4l4.2,0.3c0,0,11,2.1,14.7,6.9c1.2,1.5,2,2.4,2.5,4.3c0.7,2.9-0.5,7.2-0.5,7.2
								s-1.1-0.5-2.3-0.7s-2.6,0.5-2.6,0.5s0.5-6.1-5.4-11.4C169.7,153.5,162.5,149.4,162.5,149.4z"/>
						</g>
					</g>
					<g>
						<g>
							<path class="st5" d="M146.6,151.2l10-1.6c0,0,9.4,3.8,13.5,8.4c2.4,2.7,4,4.4,4.9,7.9c0.3,1.2,0.5,3.1,0.5,3.1s-2.7-3-5-3.9
								c-6.4-2.6-14.9,7.5-14.9,7.5s1.7-6.8,0.3-12.3C154.3,154.4,146.6,151.2,146.6,151.2z"/>
						</g>
					</g>
					<g>
						<g>
							<path class="st5" d="M175.1,137.2c0,0,2.6,9.9,3.4,16.4c0.5,3.5,0.9,9,0.9,9s3.2,1.2,8.8,0.9c3-0.1,10.9,2,10.9,2
								s-13.7-12.4-18.8-19.6C178.1,142.6,175.1,137.2,175.1,137.2z"/>
						</g>
					</g>
					<g>
						<g>
							<path class="st5" d="M134.1,172.3c0,0,6.9,0.4,11.2,1.3c3.2,0.7,8,2.4,8,2.4s1.2,1.2,1.5,2.1c0.5,1.6-0.6,4.2-0.6,4.2
								l-18.2-1.8c0,0,0.6-3.8-0.4-5.8C135.2,173.6,134.1,172.3,134.1,172.3z"/>
						</g>
					</g>
					<g>
						<g>
							<path class="st5" d="M138.6,111.4c0.6,0.3,1.8,3.4,2.1,2.5c0.5-1.6,0.6-3.4,0.4-5.1c-0.2-2.3-1-5.1-2.6-6.3l-5.1-3l-4.3-2.6
								c1.3,4.4-0.5,8.1-2.1,10.3c1.3,0.2,2.2,0.7,3.3,1C133.2,109,136.3,109.7,138.6,111.4z"/>
						</g>
					</g>
					<g>
						<g>
							<path class="st5" d="M138.1,114.2c0,0,2.5,5.1,2.8,8.5c0.2,1.9,0.6,5.5,0.6,5.5c-1.5-2.2-2.2-4.2-6.6-5.6
								c-3.2-1-8.4-1.5-11.8-1.8c0.9-1.3,4.1-4.2,4.1-10.5C130.5,110.1,138.1,114.2,138.1,114.2z"/>
						</g>
					</g>
					<g>
						<g>
							<path class="st5" d="M157.9,125.6l10,5.6c1.9,2.1,2.8,3.5,3.9,6.1c1.9,4.4,2.7,7.4,1.8,12.1c-0.6,2.7-0.9,2.9-2.4,5.2
								c-0.9-1.7-2.8-3.7-5.6-5.6c-5.8-4.1-10.8-4.8-16.1,0C158.2,140.5,158.1,132.4,157.9,125.6z"/>
						</g>
					</g>
				</g>
			</g>
			<g>
				<defs>
					<path id="SVGID_9_" d="M150.4,77.1c-40.9,0-74.1,33.1-74.1,74s33.1,74,74.1,74c40.9,0,74-33.1,74-74
						C224.4,110.3,191.3,77.1,150.4,77.1z"/>
				</defs>
				<clipPath id="SVGID_10_">
					<use xlink:href="#SVGID_9_"  style="overflow:visible;"/>
				</clipPath>
				<g class="st9">
					<g>
						<g>
							<path class="st5" d="M194.8,153c0,0,1.3,2.6,1,4.2c-0.2,1.1-1.2,2.7-1.2,2.7s3,0.9,4.9,1.1c2,0.2,4.7,0,4.7,0L194.8,153z"/>
						</g>
					</g>
					<g>
						<g>
							<path class="st5" d="M172.9,132.5l33,27.9c0,0-4.6-7.9-8.6-12.2C189.7,139.8,172.9,132.5,172.9,132.5z"/>
						</g>
					</g>
					<g>
						<g>
							<path class="st5" d="M174,128.9l43.3,26.6c0,0-4.9-6.9-8.7-10.6C197.8,134.7,174,128.9,174,128.9z"/>
						</g>
					</g>
					<g>
						<g>
							<path class="st5" d="M202.7,148.7c0,0,2.2,2.3,2.6,4.4c0.2,1.2,0,3.2,0,3.2s3.1,0.5,5.1,0.4s5-0.2,5-0.2L202.7,148.7z"/>
						</g>
					</g>
					<g>
						<g>
							<path class="st5" d="M172.6,112.8c0,0,3.6,3.7,4.4,7.6c0.4,1.9,0.5,5,0.5,5s3.7,0.4,6,1c6.2,1.5,14.8,7.1,14.8,7.1
								s-7.1-6.4-11.9-10.3C180.7,118.7,172.6,112.8,172.6,112.8z"/>
						</g>
					</g>
					<g>
						<g>
							<path class="st5" d="M184.7,117.4c0,0,16,8.1,24.6,15.3c7.6,6.4,16.1,16.2,16.1,16.2s-10.1-7.7-17.6-13.9
								C199.2,127.9,184.7,117.4,184.7,117.4z"/>
						</g>
					</g>
					<g>
						<g>
							<path class="st5" d="M224.4,149.3c0,0-6.3-1.5-8.3-1.9c-3-0.7-2.8,0-2.8,0s-2.1-4.1-5-7.6c-1.2-1.4-0.4-0.2-5.3-5.8
								C206.7,137,210.7,139.8,224.4,149.3z"/>
						</g>
					</g>
				</g>
			</g>
			<g>
				<defs>
					<path id="SVGID_11_" d="M150.4,77.1c-40.9,0-74.1,33.1-74.1,74s33.1,74,74.1,74c40.9,0,74-33.1,74-74
						C224.4,110.3,191.3,77.1,150.4,77.1z"/>
				</defs>
				<clipPath id="SVGID_12_">
					<use xlink:href="#SVGID_11_"  style="overflow:visible;"/>
				</clipPath>
				<g class="st10">
					<g>
						<path class="st11" d="M224.5,158.2"/>
					</g>
				</g>
			</g>
			<g>
				<defs>
					<path id="SVGID_13_" d="M150.4,77.1c-40.9,0-74.1,33.1-74.1,74s33.1,74,74.1,74c40.9,0,74-33.1,74-74
						C224.4,110.3,191.3,77.1,150.4,77.1z"/>
				</defs>
				<clipPath id="SVGID_14_">
					<use xlink:href="#SVGID_13_"  style="overflow:visible;"/>
				</clipPath>
				<g class="st12">
					<g>
						<path class="st13" d="M85.5,186.1"/>
					</g>
				</g>
			</g>
			<g>
				<defs>
					<path id="SVGID_15_" d="M150.4,77.1c-40.9,0-74.1,33.1-74.1,74s33.1,74,74.1,74c40.9,0,74-33.1,74-74
						C224.4,110.3,191.3,77.1,150.4,77.1z"/>
				</defs>
				<clipPath id="SVGID_16_">
					<use xlink:href="#SVGID_15_"  style="overflow:visible;"/>
				</clipPath>
				<g class="st14">
					<g>
						<path class="st5" d="M207.2,128.3c-17-16-38.2-29.9-38.2-29.9s3.1,4.3,2.6,10.6C187,114.1,207.2,128.3,207.2,128.3z"/>
					</g>
				</g>
			</g>
		</g>
		<g>
			<g>
				<path class="st3" d="M150.4,41.5c-60.6,0-109.7,49.1-109.7,109.6s49.1,109.6,109.7,109.6S260,211.6,260,151.1
					S210.9,41.5,150.4,41.5z M150.4,228.3c-42.7,0-77.2-34.6-77.2-77.2s34.6-77.2,77.2-77.2s77.2,34.6,77.2,77.2
					C227.6,193.8,193,228.3,150.4,228.3z"/>
			</g>
		</g>
		<g>
			<g>
				<g>
					<path class="st5" d="M54.8,165.1l9.7,1.4v0.3l-8.6,4.7l0.2,1.2l-0.3,0.1l-0.8-4.2l0.3-0.1l0.2,1.4l2.8-1.4l-0.4-2.4l-3.1-0.4
						l0.2,1.4l-0.3,0.1l-0.5-2.9l0.3-0.1L54.8,165.1z M58.8,168.2l3.2-1.6l0,0l-3.5-0.5L58.8,168.2z"/>
				</g>
			</g>
			<g>
				<g>
					<path class="st5" d="M64,182.4l3.9-1.3l-0.4-1.1l0.3-0.1l1.3,3.7l-0.3,0.1l-0.4-1.2l-8.4,2.8l0.4,1.2l-0.3,0.1l-1.3-3.8
						l0.3-0.1l0.4,1.1l4.1-1.4l-1.3-3.9l-4.1,1.4l0.4,1.1l-0.3,0.1l-1.3-3.7l0.3-0.1l0.4,1.2l8.4-2.8l-0.4-1.2l0.3-0.1l1.3,3.7
						l-0.3,0.1l-0.4-1.1l-3.9,1.3L64,182.4z"/>
				</g>
			</g>
			<g>
				<g>
					<path class="st5" d="M61.5,188.9l8.1-3.5l-0.5-1.1l0.3-0.1l1.6,3.7l-0.3,0.1l-0.5-1.1l-8.1,3.5l0.5,1.1l-0.3,0.1l-1.6-3.7
						l0.3-0.1L61.5,188.9z"/>
				</g>
			</g>
			<g>
				<g>
					<path class="st5" d="M63.3,192.7l2.3-1.3l0.2,0.3c-0.7,0.4-1.1,1-1.4,1.7s-0.2,1.4,0.1,2.1c0.3,0.5,0.6,0.9,1.1,1.2
						c0.5,0.2,1,0.2,1.5-0.1c0.4-0.2,0.7-0.6,0.8-1c0.1-0.5,0.1-1,0.1-1.5c-0.1-0.5-0.1-1.1-0.2-1.6c0-0.5,0-1.1,0.2-1.6
						s0.6-0.9,1.1-1.2c0.7-0.4,1.4-0.4,2.1-0.1c0.7,0.3,1.2,0.8,1.6,1.6c0.4,0.7,0.6,1.5,0.6,2.4l-1.8,1l-0.2-0.3
						c1.2-1,1.5-2,0.9-3.1c-0.2-0.4-0.5-0.8-0.9-1s-0.8-0.2-1.3,0.1c-0.3,0.2-0.6,0.4-0.7,0.8c-0.1,0.3-0.1,0.7-0.1,1.1
						c0,0.4,0.1,0.8,0.1,1.3s0,0.9,0,1.4c0,0.4-0.1,0.8-0.4,1.2c-0.2,0.4-0.6,0.7-1.1,1c-0.8,0.4-1.5,0.4-2.3,0.1
						c-0.8-0.4-1.4-0.9-1.8-1.7C63.6,194.6,63.3,193.7,63.3,192.7z"/>
				</g>
			</g>
			<g>
				<g>
					<path class="st5" d="M68.7,202.7l7.4-4.7l-0.6-1c-0.2-0.4-0.5-0.6-0.9-0.7c-0.4-0.1-0.8-0.1-1.2,0c-0.4,0.1-0.8,0.3-1.2,0.5
						l-0.2-0.3l2.6-1.6l4.6,7.1l-2.6,1.6l-0.2-0.3c0.6-0.4,1-0.9,1.3-1.4s0.2-1.1-0.1-1.6l-0.6-1l-7.3,4.7l0.8,1.2l-0.3,0.2
						l-2.4-3.7l0.3-0.2L68.7,202.7z"/>
				</g>
			</g>
			<g>
				<g>
					<path class="st5" d="M74.5,206.6c0.3-0.5,0.7-0.9,1.2-1.3c0.5-0.4,1-0.7,1.5-0.9s1.1-0.3,1.7-0.4c0.6,0,1.2,0.1,1.8,0.4
						c0.6,0.3,1.1,0.7,1.6,1.3s0.8,1.2,0.9,1.8s0.1,1.2,0,1.8c-0.2,0.6-0.4,1.1-0.7,1.6c-0.3,0.5-0.7,0.9-1.2,1.3
						c-0.5,0.4-1,0.7-1.5,0.9s-1.1,0.3-1.7,0.4c-0.6,0-1.2-0.1-1.8-0.4c-0.6-0.3-1.1-0.7-1.6-1.3s-0.8-1.2-0.9-1.8s-0.1-1.2,0-1.8
						S74.1,207.1,74.5,206.6z M80.1,210.7c0.4-0.3,0.8-0.6,1-0.9c0.3-0.3,0.6-0.6,0.8-0.9c0.3-0.3,0.4-0.7,0.5-1s0.1-0.6,0-1
						s-0.2-0.7-0.5-1.1c-0.3-0.3-0.6-0.6-0.9-0.7c-0.3-0.1-0.7-0.2-1-0.2s-0.7,0.1-1.1,0.3s-0.8,0.4-1.1,0.6
						c-0.3,0.2-0.7,0.5-1.1,0.8c-0.5,0.4-0.9,0.8-1.3,1.1c-0.3,0.3-0.6,0.7-0.9,1.1c-0.3,0.4-0.4,0.8-0.3,1.3c0,0.4,0.2,0.9,0.6,1.3
						c0.3,0.4,0.7,0.7,1.1,0.8s0.9,0.1,1.3,0c0.5-0.2,0.9-0.4,1.3-0.6C79.1,211.5,79.5,211.2,80.1,210.7z"/>
				</g>
			</g>
			<g>
				<g>
					<path class="st5" d="M80.1,217.4l6.2-6.2l-0.9-0.9l0.2-0.2l2.7,2.8c0.7,0.7,1.1,1.3,1.2,1.9c0.1,0.6-0.1,1.2-0.8,1.8
						c-0.5,0.5-1,0.7-1.5,0.7c-0.5-0.1-1-0.3-1.6-0.8l0,0c0.3,0.4,0.6,0.8,0.7,1c0.1,0.3,0.2,0.5,0.3,0.8c0,0.3,0,0.6-0.2,0.9
						c-0.2,0.3-0.4,0.6-0.8,1c-0.5,0.6-0.9,1-1,1.3s-0.1,0.6,0.2,0.9l0.2,0.2l-0.2,0.2l-0.7-0.7c-0.2-0.2-0.4-0.4-0.5-0.6
						c-0.1-0.2-0.2-0.4-0.2-0.5c0-0.2,0-0.3,0.1-0.6c0.1-0.2,0.2-0.4,0.4-0.6c0.1-0.2,0.4-0.4,0.6-0.8c0.6-0.7,0.9-1.2,1-1.6
						c0-0.4-0.2-0.9-0.8-1.5l-0.6-0.6l-3.2,3.1l0.8,0.8l-0.2,0.2l-2.8-2.8l0.2-0.2L80.1,217.4z M87.5,212.3l-2.8,2.8l0.7,0.7
						c0.7,0.7,1.6,0.6,2.5-0.3c0.5-0.5,0.7-0.9,0.7-1.3c0-0.4-0.2-0.9-0.6-1.3L87.5,212.3z"/>
				</g>
			</g>
			<g>
				<g>
					<path class="st5" d="M86.6,223.7l5.8-6.7l-0.9-0.8l0.2-0.3l3,2.6l-0.2,0.2l-0.9-0.8l-5.8,6.7l0.9,0.8l-0.2,0.3l-3-2.6l0.2-0.2
						L86.6,223.7z"/>
				</g>
			</g>
			<g>
				<g>
					<path class="st5" d="M101.4,224.4l-1.5,2l-0.3-0.2c0.4-0.8,0.6-1.5,0.6-2.1s-0.4-1.2-1.1-1.7c-0.4-0.3-0.8-0.5-1.2-0.6
						c-0.4-0.1-0.8-0.1-1.1,0c-0.3,0.1-0.7,0.3-1,0.5c-0.3,0.3-0.6,0.5-0.9,0.8s-0.5,0.6-0.8,1s-0.5,0.7-0.7,1s-0.4,0.7-0.5,1.1
						c-0.2,0.4-0.3,0.8-0.3,1.1s0.1,0.7,0.2,1.1c0.2,0.4,0.4,0.7,0.8,1c0.7,0.5,1.4,0.7,2.2,0.5c0.8-0.2,1.4-0.6,2-1.3l0.3,0.2
						l-1.6,2.1c-1.3-0.2-2.4-0.6-3.2-1.2c-1.1-0.8-1.7-1.8-1.8-3c-0.1-1.2,0.3-2.4,1.2-3.6c0.8-1.2,1.9-1.9,3.1-2.1
						c1.2-0.2,2.4,0.1,3.5,0.9C100.2,222.5,100.8,223.3,101.4,224.4z"/>
				</g>
			</g>
			<g>
				<g>
					<path class="st5" d="M98.4,232.6l7.4-6.4l0.2,0.1l-2.1,9.6l1,0.6l-0.2,0.3l-3.7-2.2l0.2-0.3l1.2,0.7l0.7-3l-2.1-1.3l-2.3,2.1
						l1.2,0.7l-0.2,0.3l-2.5-1.5l0.2-0.3L98.4,232.6z M103.4,231.6l0.8-3.5l0,0l-2.7,2.3L103.4,231.6z"/>
				</g>
			</g>
			<g>
				<g>
					<path class="st5" d="M107.4,237.6l3.7-8l-1.1-0.5l0.1-0.3l3.6,1.7l-0.1,0.3l-1.1-0.5l-3.7,8l2,0.9c0.7,0.3,1.4,0.4,1.9,0.2
						c0.6-0.2,1.2-0.8,1.9-1.9l0.3,0.1l-1.5,3.2l-7.3-3.4l0.1-0.3L107.4,237.6z"/>
				</g>
			</g>
			<g>
				<g>
					<path class="st5" d="M119.5,242.7l2.6-8.4l-1.2-0.4l0.1-0.3l4.3,1.3c0.9,0.3,1.4,0.6,1.7,1.1c0.2,0.5,0.2,1,0,1.7
						c-0.3,1.1-1.2,1.6-2.6,1.4l0,0c0.8,0.4,1.4,0.8,1.8,1.3c0.3,0.5,0.4,1.2,0.1,2c-0.3,0.9-0.7,1.5-1.3,1.7
						c-0.6,0.2-1.4,0.2-2.3-0.1l-4.4-1.4l0.1-0.3L119.5,242.7z M122.3,238.7l-1.4,4.4l1.2,0.4c0.7,0.2,1.3,0.2,1.7-0.1
						c0.4-0.3,0.7-0.8,0.9-1.5c0.5-1.5,0.1-2.4-1.1-2.8L122.3,238.7z M123.6,234.7l-1.1,3.6l1.1,0.3c0.5,0.2,0.9,0.1,1.2,0
						c0.3-0.2,0.5-0.6,0.7-1.2c0.2-0.6,0.2-1.1,0.1-1.5s-0.4-0.7-0.9-0.8L123.6,234.7z"/>
				</g>
			</g>
			<g>
				<g>
					<path class="st5" d="M128.9,245.3l1.7-8.7l-1.2-0.2l0.1-0.3l3.9,0.8l-0.1,0.3l-1.2-0.2l-1.7,8.7l2.2,0.4
						c0.8,0.2,1.4,0.1,1.9-0.3c0.5-0.3,1-1.1,1.4-2.3l0.3,0.1l-0.7,3.4l-7.9-1.6l0.1-0.3L128.9,245.3z"/>
				</g>
			</g>
			<g>
				<g>
					<path class="st5" d="M138.6,247l0.8-8.8l-1.2-0.1v-0.3l7.6,0.7l-0.2,2.9h-0.3c0-0.3-0.1-0.6-0.1-0.8s-0.1-0.4-0.1-0.6
						c-0.1-0.2-0.1-0.3-0.2-0.5c-0.1-0.1-0.2-0.2-0.3-0.4c-0.1-0.1-0.3-0.2-0.5-0.3s-0.4-0.1-0.6-0.2c-0.3-0.1-0.5-0.1-0.8-0.1
						s-0.6-0.1-1-0.1l-0.6-0.1l-0.4,4.1l0.7,0.1c0.7,0.1,1.2,0,1.4-0.3s0.3-0.8,0.4-1.6h0.4l-0.4,4.5h-0.4c0-0.3,0-0.6,0.1-0.7
						c0-0.2,0-0.4,0-0.5c0-0.2-0.1-0.3-0.1-0.4c-0.1-0.1-0.1-0.2-0.3-0.3c-0.1-0.1-0.3-0.1-0.4-0.2c-0.2,0-0.4-0.1-0.7-0.1l-0.7-0.1
						l-0.4,4.3l2,0.2c1,0.1,1.7-0.1,2.2-0.5s0.8-1.1,1.1-2.1h0.4l-0.4,3.2l-7.9-0.7v-0.3L138.6,247z"/>
				</g>
			</g>
			<g>
				<g>
					<path class="st5" d="M148.8,247.7l-0.2-8.8h-1.2v-0.3l3-0.1l4.8,6.7l0,0l-0.1-6.4h-1.4v-0.3l3-0.1v0.3h-1.2l0.2,9.2l-0.2,0.1
						l-6.4-8.9l0,0l0.2,8.5h1.5v0.3l-3.1,0.1v-0.3H148.8z"/>
				</g>
			</g>
			<g>
				<g>
					<path class="st5" d="M160.1,247.2l-1.2-8.7l-1.2,0.2v-0.3l5.2-0.7c1.3-0.2,2.4,0.1,3.2,0.8s1.3,1.8,1.5,3.3
						c0.1,0.6,0.1,1.2,0,1.8s-0.2,1.1-0.4,1.6s-0.6,0.9-1.1,1.2s-1.1,0.6-1.9,0.7l-5.3,0.7v-0.3L160.1,247.2z M160.4,238.3l1.2,8.7
						l2.2-0.3c0.9-0.1,1.6-0.6,1.9-1.5c0.3-0.9,0.4-2,0.2-3.2c-0.4-2.9-1.5-4.3-3.3-4L160.4,238.3z"/>
				</g>
			</g>
			<g>
				<g>
					<path class="st5" d="M173.9,242.1c-0.3-0.5-0.6-1-0.8-1.6s-0.3-1.2-0.3-1.8s0.1-1.2,0.3-1.7c0.2-0.6,0.5-1.1,1-1.5
						s1.1-0.8,1.8-1s1.4-0.3,2-0.2s1.2,0.3,1.6,0.7c0.5,0.4,0.9,0.8,1.2,1.3s0.6,1,0.8,1.6s0.3,1.2,0.3,1.8s-0.1,1.2-0.3,1.7
						c-0.2,0.6-0.5,1-1,1.5c-0.5,0.4-1,0.8-1.8,1c-0.7,0.2-1.4,0.3-2,0.2s-1.2-0.3-1.6-0.7C174.6,243,174.2,242.6,173.9,242.1z
						 M179.8,238.5c-0.1-0.5-0.3-0.9-0.4-1.3c-0.1-0.4-0.3-0.7-0.6-1.1c-0.2-0.4-0.5-0.6-0.7-0.8s-0.6-0.3-0.9-0.4
						c-0.4-0.1-0.8,0-1.2,0.1s-0.8,0.3-1,0.6c-0.3,0.3-0.4,0.5-0.5,0.8s-0.1,0.7-0.1,1.1c0,0.4,0.1,0.8,0.1,1.2
						c0.1,0.4,0.2,0.8,0.4,1.3c0.2,0.6,0.4,1.2,0.6,1.6c0.2,0.4,0.4,0.8,0.7,1.2s0.6,0.6,1.1,0.8c0.4,0.1,0.9,0.1,1.4-0.1
						c0.5-0.2,0.9-0.4,1.2-0.7s0.4-0.7,0.5-1.2c0-0.5,0-1-0.1-1.4C180.1,239.7,180,239.1,179.8,238.5z"/>
				</g>
			</g>
			<g>
				<g>
					<path class="st5" d="M186,240.9l-3.4-8.1l-1.1,0.5l-0.1-0.3l7-3l1.2,2.7l-0.3,0.1c-0.2-0.3-0.3-0.5-0.5-0.7
						c-0.1-0.2-0.3-0.3-0.4-0.5c-0.1-0.1-0.3-0.2-0.4-0.3c-0.1-0.1-0.3-0.1-0.5-0.2c-0.2,0-0.3,0-0.5,0s-0.4,0.1-0.6,0.1
						c-0.3,0.1-0.5,0.2-0.8,0.3s-0.6,0.2-0.9,0.4l-0.6,0.2l1.6,3.8l0.7-0.3c0.7-0.3,1-0.6,1.1-0.9c0.1-0.3-0.1-0.8-0.4-1.6l0.4-0.2
						l1.8,4.1l-0.4,0.2c-0.1-0.3-0.2-0.5-0.3-0.7s-0.2-0.3-0.3-0.5s-0.2-0.3-0.3-0.3c-0.1-0.1-0.2-0.1-0.4-0.1c-0.1,0-0.3,0-0.5,0
						s-0.4,0.1-0.6,0.2l-0.7,0.3l1.7,3.9l1.1-0.5l0.1,0.3l-3.7,1.6l-0.1-0.3L186,240.9z"/>
				</g>
			</g>
			<g>
				<g>
					<path class="st5" d="M198.6,234.8l-4.4-7.5l-1,0.6c-0.4,0.2-0.6,0.5-0.7,0.9c-0.1,0.4-0.1,0.8,0,1.2s0.2,0.8,0.4,1.2l-0.3,0.2
						l-1.5-2.6l7.3-4.3l1.5,2.6l-0.3,0.2c-0.4-0.6-0.8-1-1.4-1.3c-0.5-0.3-1.1-0.3-1.6,0l-1,0.6l4.4,7.5l1.3-0.7l0.2,0.3l-3.8,2.2
						l-0.2-0.3L198.6,234.8z"/>
				</g>
			</g>
			<g>
				<g>
					<path class="st5" d="M204,231.5l-2.9-9.4l0.2-0.2l7.9,5.8l1-0.7l0.2,0.3l-3.5,2.5l-0.2-0.3l1.1-0.8l-2.5-1.9l-2,1.4l0.9,3
						l1.1-0.8l0.2,0.3l-2.4,1.7l-0.2-0.3L204,231.5z M205.1,226.5l-2.8-2.1l0,0l1.1,3.4L205.1,226.5z"/>
				</g>
			</g>
			<g>
				<g>
					<path class="st5" d="M211,226.2l-1.8-2l0.3-0.2c0.5,0.6,1.2,0.9,2,1s1.4-0.1,2-0.6c0.5-0.4,0.7-0.8,0.9-1.4
						c0.1-0.5,0-1-0.4-1.5c-0.3-0.4-0.7-0.5-1.2-0.5s-1,0.1-1.5,0.3s-1,0.4-1.5,0.5c-0.5,0.2-1,0.2-1.6,0.1c-0.5-0.1-1-0.3-1.4-0.8
						c-0.5-0.6-0.7-1.3-0.6-2c0.1-0.7,0.5-1.4,1.1-1.9s1.4-0.9,2.2-1.2l1.4,1.5l-0.3,0.2c-1.2-0.9-2.3-1-3.2-0.2
						c-0.4,0.3-0.6,0.7-0.7,1.1c-0.1,0.4,0,0.8,0.4,1.2c0.2,0.3,0.5,0.4,0.9,0.5c0.4,0,0.7,0,1.1-0.2c0.4-0.1,0.8-0.3,1.2-0.4
						c0.5-0.1,0.9-0.3,1.3-0.4c0.4-0.1,0.8-0.1,1.3,0.1c0.5,0.1,0.9,0.4,1.2,0.8c0.6,0.7,0.8,1.4,0.6,2.2s-0.6,1.5-1.2,2.1
						C212.8,225.4,211.9,225.9,211,226.2z"/>
				</g>
			</g>
			<g>
				<g>
					<path class="st5" d="M219.5,218.6l-6.3-6.1l-0.8,0.8c-0.3,0.3-0.5,0.7-0.5,1.1c0,0.4,0.1,0.8,0.3,1.1s0.4,0.7,0.7,1l-0.3,0.3
						l-2.2-2.1l5.9-6.1l2.2,2.1l-0.3,0.3c-0.5-0.5-1.1-0.8-1.7-0.9c-0.6-0.1-1.1,0-1.5,0.5l-0.8,0.8l6.3,6.1l1-1.1l0.2,0.2l-3.1,3.2
						l-0.2-0.2L219.5,218.6z"/>
				</g>
			</g>
			<g>
				<g>
					<path class="st5" d="M224.9,212.6l-7-5.4l-0.8,1l-0.3-0.2l4.6-6l2.4,1.7l-0.2,0.3c-0.3-0.1-0.5-0.3-0.7-0.4
						c-0.2-0.1-0.4-0.2-0.6-0.2c-0.2,0-0.4-0.1-0.5-0.1s-0.3,0-0.5,0.1s-0.3,0.1-0.5,0.2c-0.1,0.1-0.3,0.2-0.5,0.4s-0.4,0.4-0.5,0.6
						c-0.2,0.2-0.4,0.5-0.6,0.8l-0.4,0.5l3.2,2.5l0.4-0.6c0.4-0.6,0.6-1,0.5-1.3s-0.5-0.7-1.1-1.2l0.2-0.3l3.6,2.8l-0.2,0.3
						c-0.3-0.2-0.4-0.3-0.6-0.4c-0.1-0.1-0.3-0.2-0.5-0.3s-0.3-0.1-0.4-0.1c-0.1,0-0.2,0-0.4,0.1c-0.1,0.1-0.3,0.1-0.4,0.3
						c-0.1,0.1-0.3,0.3-0.4,0.5l-0.4,0.6l3.4,2.6l1.2-1.6c0.6-0.8,0.8-1.5,0.7-2.1s-0.5-1.3-1.2-2l0.2-0.3l2.5,2.1l-4.9,6.3
						l-0.3-0.2L224.9,212.6z"/>
				</g>
			</g>
			<g>
				<g>
					<path class="st5" d="M230.2,197.1l1.3-2.3l0.2,0.1l-0.1,0.1c-0.3,0.5-0.2,0.9,0.2,1.3c0.8,0.7,1.2,1.2,1.4,1.6h0.3
						c0.5-0.1,0.9-0.2,1-0.5c0.1-0.2,0.1-0.4,0-0.6c-0.1-0.2-0.2-0.3-0.4-0.5c-0.3-0.2-0.6-0.3-0.9-0.3v-0.2h0.2
						c0.4,0,0.7,0.2,1.1,0.4c0.4,0.2,0.7,0.5,0.8,0.9s0.1,0.8-0.1,1.1c-0.3,0.5-0.7,0.7-1.3,0.8v0.3c0.1,0.6,0,1.1-0.3,1.6
						s-0.7,0.9-1.3,1s-1.1,0.1-1.5-0.2c-0.4-0.2-0.7-0.5-0.9-0.9c-0.2-0.3-0.2-0.8-0.3-1.3v-0.3h-0.2c-0.3,0-0.7-0.1-1-0.3
						c-0.4-0.2-0.6-0.5-0.8-1c-0.1-0.4-0.1-0.8,0.2-1.2c0.2-0.3,0.4-0.5,0.6-0.5c0.2-0.1,0.5,0,0.7,0.1c0.4,0.2,0.6,0.7,0.6,1.3v0.4
						l3.1-0.2c-0.4-0.6-0.8-1-1.4-1.4c-0.2-0.1-0.4-0.1-0.6,0c-0.2,0.1-0.4,0.3-0.5,0.5L230.2,197.1L230.2,197.1z M229.3,198.1h0.2
						v-0.2c-0.1-0.4-0.3-0.8-0.6-0.9c-0.3-0.2-0.6-0.2-0.8,0.1c-0.1,0.1-0.1,0.3,0,0.4c0,0.2,0.2,0.3,0.3,0.4
						C228.6,198.1,228.9,198.1,229.3,198.1z M233.5,199.1l-3.6,0.2v0.2c0.1,0.5,0.3,0.8,0.6,1s0.9,0.3,1.6,0.2
						c0.7,0,1.1-0.2,1.3-0.5c0.1-0.2,0.2-0.5,0.2-0.8L233.5,199.1z"/>
				</g>
			</g>
			<g>
				<g>
					<path class="st5" d="M239.1,189.3l-8.1-3.4l-0.4,1.1c-0.2,0.4-0.2,0.8,0,1.2c0.1,0.4,0.4,0.7,0.7,1s0.7,0.5,1.1,0.7l-0.2,0.4
						l-2.8-1.2l3.3-7.8l2.8,1.2l-0.2,0.4c-0.7-0.3-1.3-0.3-1.9-0.2c-0.6,0.1-1,0.4-1.3,1l-0.4,1.1l8.1,3.4l0.6-1.3l0.3,0.1l-1.7,4.1
						l-0.3-0.1L239.1,189.3z"/>
				</g>
			</g>
			<g>
				<g>
					<path class="st5" d="M242,181.7l-8.5-2.5l-0.4,1.2l-0.3-0.1l2.2-7.3l2.8,0.8l-0.1,0.3c-0.3,0-0.6-0.1-0.8-0.1s-0.4,0-0.6,0
						c-0.2,0-0.4,0.1-0.5,0.1c-0.1,0.1-0.3,0.1-0.4,0.3c-0.1,0.1-0.2,0.2-0.3,0.4c-0.1,0.1-0.2,0.3-0.3,0.6
						c-0.1,0.2-0.2,0.5-0.3,0.8s-0.2,0.6-0.3,1l-0.2,0.6l3.9,1.2l0.2-0.7c0.2-0.7,0.2-1.2,0-1.4c-0.2-0.3-0.7-0.5-1.4-0.7l0.1-0.4
						l4.3,1.3l-0.1,0.4c-0.3-0.1-0.5-0.2-0.7-0.2s-0.3-0.1-0.5-0.1s-0.3,0-0.4,0c-0.1,0-0.2,0.1-0.3,0.2c-0.1,0.1-0.2,0.2-0.3,0.4
						s-0.1,0.4-0.2,0.6l-0.2,0.7l4.1,1.2l0.6-1.9c0.3-0.9,0.3-1.7-0.1-2.2c-0.3-0.6-0.9-1-1.9-1.5l0.1-0.3l3.1,1L242,183l-0.3-0.1
						L242,181.7z"/>
				</g>
			</g>
			<g>
				<g>
					<path class="st5" d="M244.6,172.3l-8.6-4.8v-0.3l9.7-1.3l0.2-1.2l0.3,0.1l-0.8,4.2l-0.3-0.1l0.3-1.4l-3.1,0.3l-0.5,2.4l2.7,1.5
						l0.3-1.4l0.3,0.1l-0.5,2.9l-0.3-0.1L244.6,172.3z M242,168l-3.5,0.4l0,0l3.1,1.8L242,168z"/>
				</g>
			</g>
		</g>
		<g>
			<g>
				<g>
					<path class="st5" d="M65.9,134.4l-13.2-2.8l-0.4,1.7c-0.1,0.7,0,1.2,0.3,1.8c0.3,0.5,0.7,0.9,1.3,1.2c0.5,0.3,1.1,0.5,1.8,0.7
						l-0.1,0.6l-4.6-1l2.7-12.7l4.6,1l-0.1,0.6c-1.1-0.2-2.1-0.1-2.9,0.2c-0.9,0.3-1.4,0.9-1.6,1.9l-0.4,1.7l13.2,2.8l0.5-2.2
						l0.5,0.1l-1.4,6.7l-0.5-0.1L65.9,134.4z"/>
				</g>
			</g>
			<g>
				<g>
					<path class="st5" d="M64.5,114.4l-5.9-2.3l-0.7,1.7l-0.5-0.2l2.2-5.7l0.5,0.2l-0.7,1.8l12.7,4.9l0.7-1.8l0.5,0.2L71,119
						l-0.5-0.2l0.7-1.7l-6.3-2.4l-2.3,5.9l6.3,2.4l0.7-1.7l0.5,0.2l-2.2,5.7l-0.5-0.2l0.7-1.8l-12.7-4.9l-0.7,1.8l-0.5-0.2l2.2-5.7
						l0.5,0.2l-0.7,1.7l5.9,2.3L64.5,114.4z"/>
				</g>
			</g>
			<g>
				<g>
					<path class="st5" d="M73.8,111.5l-11.7-6.9l-1,1.7l-0.4-0.3l5.9-10l3.9,2.2l-0.3,0.5c-0.5-0.2-0.8-0.3-1.2-0.4
						c-0.3-0.1-0.6-0.2-1-0.2c-0.3,0-0.6,0-0.8,0c-0.2,0-0.5,0.1-0.7,0.2c-0.3,0.1-0.5,0.3-0.7,0.5s-0.4,0.4-0.7,0.8
						c-0.2,0.3-0.5,0.7-0.7,1c-0.2,0.4-0.5,0.8-0.8,1.3l-0.5,0.8l5.5,3.2l0.6-1c0.6-1,0.7-1.7,0.5-2.1c-0.2-0.5-0.8-1-1.9-1.6
						l0.3-0.5l6,3.5l-0.3,0.5c-0.4-0.2-0.7-0.4-1-0.6c-0.2-0.1-0.5-0.2-0.8-0.3c-0.3-0.1-0.5-0.1-0.7-0.1s-0.3,0.1-0.5,0.2
						s-0.4,0.3-0.5,0.5c-0.2,0.2-0.3,0.5-0.6,0.8l-0.6,1l5.7,3.4l1.6-2.7c0.8-1.3,1-2.4,0.7-3.3s-1-1.9-2.3-2.9l0.3-0.5l4.2,2.7
						l-6.2,10.6l-0.4-0.3L73.8,111.5z"/>
				</g>
			</g>
			<g>
				<g>
					<path class="st5" d="M76.5,90.9h-0.6c0.3-2.5,0.2-4.5-0.6-6.1L76,84l10.6,9.3l1.5-1.7l0.4,0.3L84,97.1l-0.4-0.3l1.5-1.7
						l-8.5-7.4l0,0C76.7,88.4,76.7,89.5,76.5,90.9z"/>
				</g>
			</g>
			<g>
				<g>
					<path class="st5" d="M86.9,88.1c-0.6-0.6-0.9-1.4-0.9-2.2c0-0.9,0.2-1.7,0.6-2.5c-0.7,0.2-1.3,0.3-2,0.2
						c-0.7-0.1-1.2-0.4-1.6-0.9c-0.8-0.9-1.1-1.9-1-3c0.2-1.1,0.7-2.1,1.6-2.9c0.8-0.7,1.6-1.1,2.6-1.2s1.8,0.2,2.5,0.9
						c1,1.1,1.1,2.4,0.3,3.8l0,0c0.9-0.4,1.8-0.5,2.6-0.3c0.9,0.2,1.6,0.6,2.2,1.3c0.9,1,1.3,2.1,1.1,3.3c-0.2,1.2-0.7,2.3-1.7,3.2
						c-1.1,1-2.1,1.5-3.1,1.6C88.8,89.4,87.8,89,86.9,88.1z M83.5,80.7c0.3,0.3,0.5,0.5,0.9,0.6c0.3,0.1,0.7,0.1,1,0.1
						c0.4-0.1,0.7-0.1,1-0.2s0.6-0.2,1.1-0.4c0.4-0.2,0.7-0.3,0.9-0.3c0.4-1.1,0.1-2.1-0.7-3.1c-0.5-0.6-1.1-0.9-1.8-0.9
						c-0.6,0-1.3,0.2-1.8,0.7s-0.9,1.1-1,1.7C82.9,79.6,83,80.2,83.5,80.7z M93.3,83.2c-0.2-0.2-0.5-0.4-0.7-0.6
						c-0.3-0.1-0.5-0.2-0.8-0.3c-0.2-0.1-0.6-0.1-0.9-0.1c-0.4,0-0.6,0.1-0.9,0.1c-0.2,0-0.6,0.1-1,0.3c-0.4,0.1-0.7,0.2-0.9,0.3
						c-0.2,0.1-0.5,0.2-0.9,0.4c-0.3,0.7-0.3,1.4-0.1,2c0.2,0.6,0.6,1.2,1.1,1.8c0.7,0.7,1.4,1.1,2.2,1.2c0.8,0,1.7-0.3,2.5-1
						c0.6-0.6,1-1.2,1.1-2C94.1,84.5,93.8,83.8,93.3,83.2z"/>
				</g>
			</g>
			<g>
				<g>
					<path class="st5" d="M91.5,75.7l-1.1-4.4l7-5c-0.1,2.9,0.2,5.4,0.8,7.7c0.6,2.3,1.6,4.6,3.1,6.9l-2.1,1.5
						c-1.6-3.6-2.4-7.9-2.5-13.1l-5.3,3.8l0.6,2.5L91.5,75.7z"/>
				</g>
			</g>
			<g>
				<g>
					<path class="st5" d="M104.7,71.2l-0.1,0.6c-1.9-0.1-3.2-0.9-4-2.4c-0.6-1.2-0.7-2.4-0.3-3.5c0.5-1.1,1.3-2,2.5-2.7
						c1.1-0.6,2.2-0.8,3.2-0.5s1.9,1,2.5,2c0.4,0.7,0.5,1.6,0.4,2.6s-0.4,2-0.8,2.9c-1.1,2.4-1.8,4.2-2.1,5.3l3.8-2.1
						c0.7-0.4,1.1-0.8,1.3-1.4c0.2-0.6,0.2-1.2,0.1-1.8l0.5-0.1l0.5,4.1l-7.5,4.1l-0.3-0.4l1.4-4.1c0.3-0.8,0.5-1.4,0.6-1.9
						s0.3-1.1,0.4-1.9s0.2-1.5,0.1-2.1c-0.1-0.7-0.3-1.3-0.6-1.8c-0.5-0.9-1.1-1.5-1.8-1.9c-0.7-0.4-1.5-0.3-2.4,0.1
						c-0.8,0.5-1.4,1.1-1.6,2s-0.1,1.8,0.4,2.6C101.8,70.5,103,71.2,104.7,71.2z"/>
				</g>
			</g>
			<g>
				<g>
					<path class="st5" d="M125.9,54.8l1.2,3.7l-0.6,0.2c-0.6-1.3-1.3-2.2-2.1-2.7c-0.8-0.6-1.9-0.6-3.1-0.2c-0.7,0.2-1.3,0.6-1.8,1
						s-0.8,0.9-1,1.4s-0.3,1.1-0.3,1.7c0,0.7,0.1,1.3,0.2,1.9c0.1,0.6,0.3,1.2,0.5,2c0.2,0.7,0.4,1.2,0.6,1.7s0.5,1,0.8,1.6
						c0.4,0.6,0.7,1.1,1.2,1.4c0.4,0.3,0.9,0.6,1.5,0.7s1.3,0.1,2-0.1c1.3-0.4,2.1-1.2,2.6-2.3c0.4-1.1,0.5-2.3,0.2-3.7l0.6-0.2
						l1.2,3.9c-1.4,1.5-2.9,2.4-4.4,2.9c-2.1,0.7-3.9,0.5-5.4-0.5c-1.6-1-2.7-2.5-3.4-4.7c-0.7-2.1-0.6-4,0.2-5.8
						c0.8-1.7,2.2-2.9,4.3-3.6C122.4,54.7,124,54.6,125.9,54.8z"/>
				</g>
			</g>
			<g>
				<g>
					<path class="st5" d="M132.8,66.8l-2.1-13.4l-1.9,0.3l-0.1-0.5l6-0.9l0.1,0.5L133,53l2.1,13.4l3.3-0.5c1.2-0.2,2.1-0.7,2.6-1.4
						c0.5-0.8,0.8-2.1,0.8-4.1l0.5-0.1l0.8,5.3l-12.1,2l-0.1-0.5L132.8,66.8z"/>
				</g>
			</g>
			<g>
				<g>
					<path class="st5" d="M145.1,65.2l-0.6-13.6l-1.9,0.1v-0.5l6.2-0.3v0.5l-1.9,0.1l0.6,13.6l1.9-0.1v0.5l-6.2,0.3v-0.5L145.1,65.2
						z"/>
				</g>
			</g>
			<g>
				<g>
					<path class="st5" d="M151.5,65l0.7-13.6l-1.9-0.1v-0.5l6.7,0.4c2.8,0.1,4.2,1.6,4,4.3c-0.1,1.3-0.5,2.3-1.2,2.9
						c-0.8,0.6-1.7,0.9-2.8,0.9l-2.9-0.1l-0.3,6l1.8,0.1v0.5l-6.1-0.3V65L151.5,65z M154.5,51.6l-0.4,6.9l1.6,0.1
						c1.1,0.1,1.9-0.2,2.2-0.7c0.4-0.5,0.6-1.4,0.6-2.7c0.1-1.1-0.1-1.9-0.4-2.5c-0.3-0.6-1-0.9-1.9-1L154.5,51.6z"/>
				</g>
			</g>
			<g>
				<g>
					<path class="st5" d="M162.3,65.9l2.4-13.4l-1.9-0.3l0.1-0.5l6.6,1.2c2.8,0.5,3.9,2.1,3.5,4.8c-0.2,1.3-0.8,2.2-1.6,2.8
						c-0.8,0.5-1.8,0.7-2.9,0.5l-2.9-0.5l-1.1,5.9l1.8,0.3l-0.1,0.5l-6-1.1l0.1-0.5L162.3,65.9z M167,52.9l-1.2,6.8l1.6,0.3
						c1.1,0.2,1.9,0.1,2.3-0.4c0.4-0.5,0.7-1.3,1-2.6c0.2-1,0.1-1.9-0.1-2.5c-0.3-0.7-0.9-1.1-1.8-1.2L167,52.9z"/>
				</g>
			</g>
			<g>
				<g>
					<path class="st5" d="M173,68l4.2-12.9l-1.8-0.6l0.2-0.5l11.1,3.7l-1.3,4.3l-0.5-0.2c0.1-0.5,0.1-0.9,0.1-1.2s0-0.7,0-1
						s-0.1-0.6-0.2-0.8c-0.1-0.2-0.2-0.4-0.4-0.6c-0.2-0.2-0.4-0.4-0.6-0.5c-0.2-0.1-0.5-0.3-0.9-0.5s-0.8-0.3-1.2-0.5
						c-0.4-0.1-0.9-0.3-1.5-0.5l-0.9-0.3l-2,6l1,0.3c1.1,0.4,1.8,0.4,2.2,0.1c0.4-0.3,0.8-1,1.2-2.2l0.6,0.2l-2.2,6.6l-0.6-0.2
						c0.2-0.5,0.3-0.8,0.3-1.1c0.1-0.3,0.1-0.5,0.2-0.8c0-0.3,0-0.5,0-0.7c-0.1-0.2-0.2-0.3-0.3-0.5s-0.3-0.3-0.6-0.4
						c-0.2-0.1-0.6-0.2-0.9-0.4l-1-0.3l-2.1,6.3l2.9,1c1.4,0.5,2.5,0.5,3.4,0s1.6-1.4,2.3-2.8l0.5,0.2l-1.7,4.7l-11.5-4l0.2-0.5
						L173,68z"/>
				</g>
			</g>
			<g>
				<g>
					<path class="st5" d="M185.4,72.4l6.1-12.1l-1.7-0.9L190,59l5.3,2.7c1.3,0.7,2.2,1.4,2.6,2.1c0.4,0.8,0.4,1.8-0.2,3
						c-0.5,1-1.1,1.6-1.9,1.7c-0.8,0.2-1.7,0.1-2.7-0.3l0,0c0.7,0.5,1.2,0.8,1.6,1.2c0.3,0.3,0.6,0.7,0.8,1.1s0.3,0.9,0.2,1.3
						c-0.1,0.5-0.3,1.1-0.6,1.9c-0.5,1.1-0.8,1.9-0.8,2.4c-0.1,0.5,0.2,0.9,0.7,1.2l0.5,0.2l-0.2,0.5l-1.3-0.7
						c-0.5-0.2-0.8-0.5-1-0.7s-0.4-0.5-0.5-0.7s-0.1-0.5-0.1-0.9c0.1-0.4,0.1-0.7,0.3-1c0.1-0.3,0.3-0.8,0.6-1.4
						c0.5-1.3,0.8-2.2,0.6-2.8c-0.1-0.6-0.8-1.2-1.9-1.8l-1.1-0.6l-3.1,6.1l1.6,0.8l-0.2,0.5l-5.4-2.7l0.2-0.5L185.4,72.4z
						 M193.6,61.3l-2.7,5.4l1.3,0.6c1.4,0.7,2.6,0.2,3.5-1.7c0.4-0.9,0.6-1.7,0.4-2.3c-0.2-0.6-0.7-1.2-1.6-1.6L193.6,61.3z"/>
				</g>
			</g>
			<g>
				<g>
					<path class="st5" d="M201.9,82.2l8.2-10.7l-1.4-1.1c-0.5-0.4-1.1-0.6-1.7-0.5c-0.6,0.1-1.2,0.3-1.7,0.6c-0.5,0.3-1,0.8-1.4,1.3
						l-0.5-0.4l2.8-3.7l10.3,7.9l-2.9,3.7l-0.5-0.4c0.6-0.9,1-1.8,1.1-2.7c0.1-0.9-0.2-1.7-1-2.3L212,73l-8.2,10.7l1.8,1.4l-0.3,0.4
						l-5.4-4.2l0.3-0.4L201.9,82.2z"/>
				</g>
			</g>
			<g>
				<g>
					<path class="st5" d="M209.4,88.4l9.8-9.4l-1.3-1.4l0.4-0.4l8.1,8.4l-3.2,3.2l-0.4-0.4c0.3-0.4,0.5-0.7,0.7-1s0.3-0.6,0.5-0.9
						c0.1-0.3,0.2-0.5,0.2-0.8c0-0.2,0-0.5,0-0.8c-0.1-0.3-0.1-0.5-0.3-0.8c-0.1-0.2-0.3-0.5-0.5-0.8s-0.5-0.6-0.8-1
						c-0.3-0.3-0.6-0.7-1.1-1.1l-0.7-0.7l-4.6,4.4l0.8,0.8c0.8,0.8,1.4,1.2,1.9,1.1s1.2-0.6,2.1-1.4l0.4,0.4l-5,4.8l-0.4-0.4
						c0.4-0.3,0.6-0.6,0.8-0.8c0.2-0.2,0.4-0.4,0.5-0.6c0.2-0.2,0.3-0.4,0.3-0.6s0-0.4,0-0.6s-0.2-0.4-0.3-0.7
						c-0.2-0.2-0.4-0.5-0.7-0.8l-0.8-0.8l-4.8,4.6l2.1,2.2c1,1.1,2,1.6,3,1.6s2.1-0.5,3.4-1.4l0.4,0.4l-3.7,3.3l-8.5-8.9l0.4-0.4
						L209.4,88.4z"/>
				</g>
			</g>
			<g>
				<g>
					<path class="st5" d="M217.8,97.5l14.5-4.3l0.2,0.3l-9,12.1l1.1,1.5l-0.4,0.3l-3.8-5.4l0.4-0.3l1.2,1.7l2.9-3.8l-2.2-3.1
						l-4.6,1.4l1.2,1.8l-0.4,0.3l-2.6-3.7l0.4-0.3L217.8,97.5z M225.4,99.2l3.3-4.3l0,0l-5.3,1.6L225.4,99.2z"/>
				</g>
			</g>
			<g>
				<g>
					<path class="st5" d="M243.7,116.8l-3.5,1.5l-0.2-0.6c1.2-0.7,2-1.5,2.5-2.4s0.4-1.9-0.1-3.1c-0.3-0.7-0.7-1.3-1.2-1.7
						c-0.5-0.4-1-0.7-1.5-0.8c-0.5-0.1-1.1-0.2-1.7-0.1c-0.7,0.1-1.3,0.2-1.8,0.4c-0.6,0.2-1.2,0.4-1.9,0.7
						c-0.6,0.3-1.2,0.5-1.7,0.8s-1,0.6-1.5,1c-0.6,0.4-1,0.9-1.3,1.3s-0.5,1-0.5,1.6c-0.1,0.6,0.1,1.3,0.3,2c0.5,1.2,1.4,2,2.5,2.3
						c1.2,0.3,2.4,0.3,3.7-0.2l0.2,0.6l-3.7,1.6c-1.6-1.2-2.7-2.6-3.4-4.1c-0.9-2-0.9-3.8-0.1-5.5c0.8-1.7,2.2-2.9,4.3-3.8
						c2-0.9,3.9-1,5.8-0.4c1.8,0.6,3.1,1.9,4,3.9C243.4,113.3,243.7,114.9,243.7,116.8z"/>
				</g>
			</g>
			<g>
				<g>
					<path class="st5" d="M236.2,122.9c0.8-0.5,1.6-0.8,2.5-1.1c0.9-0.2,1.8-0.3,2.7-0.3s1.8,0.2,2.6,0.6c0.8,0.3,1.6,0.9,2.2,1.6
						c0.6,0.8,1.1,1.7,1.4,2.8c0.3,1.1,0.3,2.1,0.1,3.1s-0.6,1.8-1.2,2.5c-0.6,0.7-1.3,1.3-2,1.7c-0.8,0.5-1.6,0.8-2.5,1.1
						c-0.9,0.2-1.8,0.3-2.7,0.3s-1.8-0.2-2.6-0.6c-0.8-0.3-1.6-0.9-2.2-1.6c-0.6-0.8-1.1-1.7-1.4-2.8c-0.3-1.1-0.3-2.1-0.1-3.1
						c0.2-1,0.6-1.8,1.2-2.5C234.8,123.9,235.4,123.4,236.2,122.9z M241.4,132.3c0.8-0.2,1.5-0.4,2-0.6c0.6-0.2,1.1-0.5,1.7-0.8
						c0.6-0.3,1-0.7,1.3-1c0.3-0.4,0.5-0.8,0.7-1.4c0.1-0.6,0.1-1.2,0-1.8c-0.2-0.7-0.4-1.2-0.8-1.6c-0.4-0.4-0.8-0.7-1.3-0.9
						c-0.5-0.2-1-0.3-1.7-0.3s-1.3,0-1.9,0.1c-0.6,0.1-1.3,0.2-2.1,0.4c-1,0.2-1.8,0.5-2.5,0.8s-1.3,0.6-1.9,1c-0.6,0.4-1,1-1.3,1.6
						c-0.2,0.6-0.2,1.4,0,2.2s0.6,1.5,1,1.9c0.5,0.5,1.1,0.7,1.9,0.8c0.7,0.1,1.5,0.1,2.2,0C239.5,132.7,240.4,132.5,241.4,132.3z"
						/>
				</g>
			</g>
			<g>
				<g>
					<path class="st5" d="M237.4,139.1c-0.2,0.3-0.5,0.5-0.9,0.6s-0.7,0-1-0.3c-0.3-0.2-0.5-0.5-0.5-0.9c-0.1-0.4,0-0.7,0.3-1
						c0.2-0.3,0.5-0.5,0.9-0.6s0.7,0,1,0.3c0.3,0.2,0.5,0.5,0.6,0.9C237.7,138.4,237.6,138.7,237.4,139.1z"/>
				</g>
			</g>
		</g>
		<g>
			<g>
				<g>
					<path class="st5" d="M241.2,145.3c0,0-0.9,0.2-1.6,0.4c-0.7,0.2-0.7-0.7-1.5-0.1c-0.9,0.6-1.9,1.3-1.9,1.3l0.5,1
						c0,0-0.5,1.1-1.2-0.2L235,148c0,0,0.4,1.7,2.1,0.8l0.5,1.2c0,0,0.3-1.2,0.8-1c0.7,0.2-0.2,2.4-0.6,3c-1.4-1.1-3.3-2.6-4.5-2.4
						c-1.2,0.2-1.2,1.7-0.7,1.8c-0.1,1.1,1,1.2,1.3,0.6c0.4,0.1,0.6-0.6,0.6-0.6s-0.3,0.7,0.2,1.3c0-0.6,0.3-0.8,0.3-0.8l2.1,2
						c0,0-0.1,0.5,0.1,1.3c0,0-2.4,1.2-3.1,1.7c-0.6,0.5-0.9,1.7,0,1.9c0.4,1,1.5,0.5,1.6,0.1c0.7,0.2,0.8-1,0.5-1.3l0.2-0.1
						c0,0,0.1,0.6,0.9,0.3l-0.4-0.5l3.2-1.5c0,0,0.5,0.6,2.1-0.1c1.6-0.7,3.7-1.9,3.7-1.9s0.3,1.3-0.8,1.9c-1.1,0.6-2.5,1.6-2.6,2.3
						c0,0.7,0.4,1.1,0.8,0.8c0.3,0.7,1.2,0.3,1.2,0.1c0.6,0.2,0.8-1.2,0.5-1.4c0.6,0.4,0.8,0.1,0.8,0.1l-0.3-0.4l2.3-1.3
						c0,0-0.5-0.8,0.2-1.7c1.1,0.8,2.4,0.5,2.4,0.5s0.3,1.5,0.2,2.3c-0.9,0.1-1.5,1.2-0.7,1.6c-0.3,0.9,1.4,1.3,1.5,0.4
						c0.8,0.1,0.8-1.2,0.6-1.4c0.4,0.2,0.7-0.2,0.7-0.3c0,0-0.7,0-0.8-0.4c0,0,0.1-3.6,0.4-4.3c-0.9-0.2-1.9-0.5-2.4-1.7
						c0.8-0.2,1.5-0.8,1.5-1.9c0-1-1.1-1.8-2-1.7c-0.9,0.2-3.8,0.8-4.4,1c-0.7,0.1-1.8,0.1-1.8-0.9s0.9-1.5,1.8-1.1
						c0.9,0.3,2.4,1.2,3.4,0.7c1.1-0.4,1.2-1.8,1.1-2.1l-0.5,0.2c0,0,0,0.3-0.2,0.7c0,0,0.1-0.3,0-0.6l-0.4,0.2c0,0,0,0.5-0.3,0.8
						c0,0,0.1-0.2,0-0.7l-0.6,0.3c0,0,0.1,0.7-0.3,0.6c-0.4-0.1-2-0.9-2.8-0.9s-1.9,0.7-1.8,2c0.1,1.4,1.5,1.7,2.4,1.4
						c1-0.3,3.5-0.8,4.3-0.9c0.7-0.1,1.4,0.4,1.4,1.2s-0.8,1.1-1.7,1.2C248,150.6,240.8,151.8,241.2,145.3z"/>
				</g>
			</g>
			<g>
				<g>
					<path class="st5" d="M57.8,145.3c0,0,0.8,0.2,1.5,0.4s0.7-0.7,1.5-0.1c0.9,0.6,1.9,1.3,1.9,1.3l-0.5,1c0,0,0.5,1.1,1.2-0.2
						L64,148c0,0-0.4,1.7-2.1,0.8l-0.5,1.2c0,0-0.3-1.2-0.8-1c-0.7,0.2,0.2,2.4,0.6,3c1.4-1.1,3.3-2.6,4.6-2.4
						c1.2,0.2,1.2,1.7,0.7,1.8c0.1,1.1-1.1,1.2-1.3,0.6c-0.4,0.1-0.6-0.6-0.6-0.6s0.3,0.7-0.2,1.3c0-0.6-0.3-0.8-0.3-0.8l-2.1,2
						c0,0,0.1,0.5-0.1,1.3c0,0,2.4,1.2,3.1,1.7c0.6,0.5,0.9,1.7-0.1,1.9c-0.4,1-1.5,0.5-1.6,0.1c-0.7,0.2-0.8-1-0.5-1.3l-0.2-0.1
						c0,0-0.1,0.6-0.9,0.3l0.3-0.5l-3.2-1.5c0,0-0.5,0.6-2.1-0.1c-1.6-0.7-3.7-1.9-3.7-1.9s-0.3,1.3,0.8,1.9
						c1.1,0.6,2.5,1.6,2.6,2.3s-0.4,1.1-0.8,0.8c-0.3,0.7-1.2,0.3-1.2,0.1c-0.6,0.2-0.8-1.2-0.6-1.4c-0.6,0.4-0.8,0.1-0.8,0.1
						l0.3-0.4l-2.3-1.3c0,0,0.5-0.8-0.2-1.7c-1.1,0.8-2.4,0.5-2.4,0.5s-0.3,1.5-0.2,2.3c0.9,0.1,1.5,1.2,0.7,1.6
						c0.3,0.9-1.4,1.3-1.5,0.4c-0.7,0.1-0.7-1.2-0.5-1.4c-0.5,0.2-0.7-0.2-0.7-0.3c0,0,0.7,0,0.8-0.4c0,0-0.1-3.6-0.4-4.3
						c0.9-0.2,1.9-0.5,2.4-1.7c-0.8-0.2-1.5-0.8-1.5-1.9c0-1,1.1-1.8,2-1.7c0.9,0.2,3.7,0.8,4.4,1c0.7,0.1,1.8,0.1,1.8-0.9
						s-0.9-1.5-1.8-1.1c-0.9,0.3-2.4,1.2-3.4,0.7c-1.1-0.4-1.2-1.8-1.1-2.1l0.5,0.2c0,0,0,0.3,0.2,0.7c0,0-0.1-0.3,0-0.6l0.4,0.2
						c0,0,0,0.5,0.3,0.8c0,0-0.1-0.2,0-0.7l0.6,0.3c0,0-0.1,0.7,0.3,0.6c0.4-0.1,2-0.9,2.8-0.9s1.9,0.7,1.8,2
						c-0.1,1.4-1.5,1.7-2.4,1.4c-1-0.3-3.5-0.8-4.3-0.9c-0.8-0.1-1.4,0.4-1.4,1.2s0.8,1.1,1.7,1.2C51,150.6,58.2,151.8,57.8,145.3z"
						/>
				</g>
			</g>
		</g>
		<g>
			<g>
				<defs>
					<circle id="SVGID_17_" cx="151.3" cy="150.3" r="73"/>
				</defs>
				<clipPath id="SVGID_18_">
					<use xlink:href="#SVGID_17_"  style="overflow:visible;"/>
				</clipPath>
				<g class="st15">
					<g>
						<g>
							<path class="st5" d="M197.9,186.9l0.6-0.8c0.3-0.4,1.2-0.7,3.1-1.2c2.1-0.7,5.1-1.6,5.9-2.6c0.7-0.9,2.9-0.9,5.1-0.9
								c1.3,0,2.7,0,3.3-0.3l0.7-0.3l-0.1,0.7c-0.2,1-1.8,3.2-3.2,3.9c-0.4,0.2-1.3,0.2-2.5,0.1c-0.6,0-1.2-0.1-1.8-0.1
								c-0.8,0-1.4,0.1-1.7,0.3c-0.8,0.4-3.8,0.6-6.8,0.9c-0.8,0.1-1.4,0.1-1.6,0.2L197.9,186.9L197.9,186.9z"/>
						</g>
					</g>
				</g>
			</g>
			<g>
				<defs>
					<circle id="SVGID_19_" cx="151.3" cy="150.3" r="73"/>
				</defs>
				<clipPath id="SVGID_20_">
					<use xlink:href="#SVGID_19_"  style="overflow:visible;"/>
				</clipPath>
				<g class="st16">
					<g>
						<g>
							<path class="st3" d="M146.5,230.1l-28.5-6.5L94,207l-2.8-5.2l0.5-0.3c0,0,0.1-0.2,0.2-0.3c0.2-0.3,0.5-0.9,1.2-0.9l0,0
								c1.5,0,2.3,0.3,2.9,0.7c0.6,0.3,1.1,0.5,1.9,0.5c0.3,0,0.4,0,0.5-0.2c0.2-0.2,0.6-0.6,1.4-0.6l0,0c0.5,0,0.9,0.2,1.2,0.4
								c0.2,0.1,0.4,0.2,0.6,0.2h3.1c0.4,0,0.5-0.1,0.7-0.5s0.5-0.9,1.2-1.1l0.2-0.1l1.7,0.7c0.2-0.1,0.3-0.1,0.4-0.1h0.6v0.1
								c0.2-0.1,0.7-0.3,1.1-0.5c0.9-0.4,1.3-0.6,1.7-0.7c-0.1-0.3-0.4-0.9-0.6-1.3c-0.5-0.9-1-1.9-1-2.7v-0.9l0.8,0.2
								c0.5,0.2,1.3,0.7,2.3,1.4c0.8,0.6,2.1,1.5,2.5,1.5h1.2c0.7,0,1.1,0.5,1.4,0.8c0.1,0.2,0.4,0.4,0.4,0.4c0.2,0,0.6-0.2,0.9-0.4
								c0.5-0.3,1-0.6,1.5-0.6l0,0c0.7,0,1.2,0.3,1.6,0.6c0.3,0.2,0.6,0.4,0.8,0.4c0.9,0,2.6-0.6,3.7-1.3c0-0.1,0-0.2,0.1-0.3
								l0.1-0.2c0-0.1-0.1-0.2-0.1-0.3c-0.5-1.2-0.7-1.7-0.4-2.2l0.2-0.3h0.4c0.5,0,4.2,1.3,4.6,1.5c0.5,0.3,0.7,0.7,0.8,1
								c0.1,0.1,0.1,0.3,0.2,0.3c0.5,0,0.8,0.2,1.1,0.4c0.2,0.1,0.3,0.2,0.4,0.2c0.6,0,1.6-0.5,2.6-0.9c1.2-0.6,2.4-1.1,3.4-1.1l0,0
								c1.1,0,1.6,0.7,2,1.3c0.3,0.3,0.5,0.6,0.8,0.8h2.7c0.6-0.4,1.3-0.6,2-0.7h1.8c0.3,0,0.5-0.1,0.8-0.2c0.5-0.2,1.1-0.4,1.9-0.4
								h0.5l0.2,0.6c0.1,0.3-0.1,0.9-0.3,1.3c0.1,0.1,0.3,0.1,0.7,0.1c0.9,0,3-0.9,4-1.9c0.2-0.2,0.4-0.4,0.4-0.6
								c0,0-0.1-0.1-0.1-0.2c-0.4-0.5-0.5-0.8-0.5-1V194l0.3-0.2c0.6-0.3,1.1-0.3,1.8,0l0.9,0.3c0.1-0.1,0.2-0.2,0.2-0.2v-2h1.5
								c1.1,0.2,3.1,0.7,4.2,0.7c0.6,0,0.8-0.2,0.8-1.5c0-0.3,0.1-0.5,0.3-0.7c0.4-0.4,1.1-0.4,1.5-0.4l0,0c0.3,0,0.6,0.1,0.7,0.2
								l0.9-0.2c0.5,1,3.4,3.2,4.9,3.2c1.2,0,3.4-1.2,4-1.8c0.7-0.6,0.8-0.8,0.9-1c0.1-0.2,0.2-0.5,0.6-1l0.4-0.5l0.5,0.4
								c0.5,0.4,1.7,1.9,2.1,3.1c1.3,0.2,2,0.7,2.6,1.1c0.4,0.3,0.7,0.5,1.1,0.6c0.5-0.2,2-1,4.1-2.9c1.5-1.4,1.4-1.8,1.2-2.4
								c-0.1-0.3-0.3-0.8-0.1-1.4l0.3-0.7l0.6,0.4c1.1,0.7,3.8,2.4,5.4,2.9c0.1-0.4,0.3-1,0.6-1.7c0.6-1.4,3.1-1.5,3.9-1.5
								c0.5,0,0.9-0.3,1.4-0.7c0.4-0.4,0.9-0.7,1.6-0.9c0.1-0.3,0.2-0.8,0.2-1.2c0.2-1.3,0.4-2.3,0.9-2.6c0.2-0.2,0.4-0.3,0.6-0.3
								c0.7,0,0.8,0.6,1.1,1.7c0.1,0.5,0.6,2,0.9,2.1c0.3,0,0.9-0.8,1.2-1.3c0.6-0.8,1.1-1.5,1.9-1.5c0.8,0,1.9-1.5,2.6-2.4
								c0.7-1,1.1-1.4,1.6-1.4c0.2,0,0.4,0.1,0.6,0.3c1.7,0.3,4,1.9,4.1,3.6c0,0.5-0.3,1.3-0.8,2.4c-0.2,0.5-0.4,1-0.5,1.3l0.1,3
								c0.8,1.7,1.3,4.5,1.3,6.2c0,1.6-0.7,2.1-1.5,2.6c-0.2,0.1-0.4,0.2-0.6,0.4c-1.9,1.5-3.6,2.8-5.5,4.5c-1,0.9-1.9,1.3-2.8,1.6
								c-0.5,0.2-1.1,0.4-1.7,0.8c-1.1,0.7-1.8,1.4-2.5,2.1c-0.8,0.8-1.5,1.6-2.8,2.4c-1.1,0.7-3.1,2.1-5.1,3.6
								c-3.9,2.8-6.3,4.6-7.3,4.8c-0.9,0.2-5.4,3.6-8.3,6l-0.2,0.1l-14,3.9L146.5,230.1L146.5,230.1z"/>
						</g>
					</g>
				</g>
			</g>
			<g>
				<defs>
					<circle id="SVGID_21_" cx="151.3" cy="150.3" r="73"/>
				</defs>
				<clipPath id="SVGID_22_">
					<use xlink:href="#SVGID_21_"  style="overflow:visible;"/>
				</clipPath>
				<g class="st17">
					<g>
						<g>
							<g>
								<path class="st5" d="M173.8,208.6L173.8,208.6c-0.1,0-0.2,0-0.3,0l-0.5-0.1l0.2-0.3c-0.6-0.3-2.8-0.5-4.2-0.7
									c-2.8-0.4-3.1-0.4-3.1-0.8v-0.2l0.3-0.2l12.9,0.3l0.1,0.6C178.3,207.7,175.2,208.6,173.8,208.6L173.8,208.6z"/>
							</g>
						</g>
					</g>
					<g>
						<g>
							<g>
								<path class="st5" d="M164.2,203.9L164.2,203.9c-0.3-0.1-0.5-0.2-0.7-0.2c-0.5-0.1-1.2-0.3-1.2-1c0-0.8,2.5-2,3-2h0.1
									l1.7,0.8l-0.4,0.3c-0.2,0.2-0.3,0.5-0.3,0.8v0.8l-0.8,0.4L164.2,203.9L164.2,203.9z"/>
							</g>
						</g>
					</g>
					<g>
						<g>
							<g>
								<path class="st5" d="M172.6,197.9l-2.1-1.1v-1.9l0.4,0.2c0,0,2.3,1.1,2.3,1.8c0,0.3-0.2,0.5-0.4,0.6l-0.1,0.1L172.6,197.9
									L172.6,197.9z"/>
							</g>
						</g>
					</g>
					<g>
						<g>
							<g>
								<path class="st5" d="M138,202.9c-1.1,0-2-0.6-2.4-1.1l-0.3-0.4l0.5-0.1c0.3,0,0.7-0.2,1.1-0.3c0.8-0.3,1.8-0.5,2.5-0.2
									c0.4,0.2,0.9,0.2,1.7,0.2c0.6,0,1.3,0,1.9-0.1c0.9-0.1,1.5-0.1,1.8,0l0.6,0.3l-0.6,0.3c-0.5,0.2-3.4,1.3-4.2,1.4L138,202.9
									L138,202.9z"/>
							</g>
						</g>
					</g>
					<g>
						<g>
							<g>
								<path class="st5" d="M203.1,192c-1.1,0-2-0.6-2.4-1.1l-0.3-0.4l0.5-0.1c0.3,0,0.7-0.2,1.1-0.3c0.8-0.3,1.8-0.5,2.5-0.2
									c0.4,0.2,0.9,0.2,1.7,0.2c0.6,0,1.3,0,1.9-0.1c0.9-0.1,1.5-0.1,1.8,0l0.6,0.3l-0.6,0.3c-0.5,0.2-3.4,1.3-4.2,1.4L203.1,192
									L203.1,192z"/>
							</g>
						</g>
					</g>
					<g>
						<g>
							<g>
								<path class="st5" d="M140,200.2c-0.7,0-1.3-0.4-1.6-0.7l-0.3-0.4l0.5-0.1c0.2,0,0.4-0.1,0.7-0.2c0.5-0.2,1.2-0.3,1.6-0.1
									c0.4,0.2,1.4,0.1,2.2,0.1c0.6,0,1-0.1,1.1,0l0.6,0.3l-0.6,0.3c-0.2,0.1-2.1,0.8-2.6,0.9L140,200.2L140,200.2z"/>
							</g>
						</g>
					</g>
					<g>
						<g>
							<g>
								<path class="st5" d="M123.7,207.2L123.7,207.2c-1,0-2-0.4-2.6-0.9l-0.4-0.4l0.6-0.1c0.4-0.1,0.9-0.3,1.4-0.5
									c1-0.4,2.1-0.8,2.9-0.5c0.9,0.3,3.3-0.3,5.1-0.7c1.3-0.3,2.2-0.5,2.5-0.4l0.7,0.2l-0.7,0.3c-0.1,0-5.1,2.5-6,2.7l-3.1,0.3
									C123.9,207.2,123.8,207.2,123.7,207.2L123.7,207.2z"/>
							</g>
						</g>
					</g>
					<g>
						<g>
							<g>
								<path class="st5" d="M135.6,208.7c-0.6,0-1.1-0.2-1.5-0.5l-0.4-0.4l0.5-0.1c0.2-0.1,0.5-0.2,0.8-0.3
									c0.6-0.3,1.2-0.5,1.7-0.4s1.9-0.3,2.9-0.6c0.7-0.2,1.2-0.3,1.4-0.3l0.8,0.2l-0.6,0.4c-0.3,0.2-2.9,1.6-3.5,1.8
									c-0.7,0.1-1.4,0.2-1.8,0.3C135.9,208.7,135.7,208.7,135.6,208.7L135.6,208.7z"/>
							</g>
						</g>
					</g>
					<g>
						<g>
							<g>
								<path class="st5" d="M119.3,204.8l-0.4-0.1c-0.7-0.2-5.3-1.8-6-2.2l-0.3-0.2l0.3-0.3c0.1-0.1,0.4-0.2,1.2-0.2
									c1.7,0,8.7,0.9,8.7,2.3c0,0.4-0.4,0.4-1.9,0.5c-0.5,0-1.1,0-1.4,0.1L119.3,204.8L119.3,204.8z"/>
							</g>
						</g>
					</g>
					<g>
						<g>
							<g>
								<path class="st5" d="M124.7,202.5l-0.4-0.1c-0.4-0.1-3.8-0.8-4.3-1l-0.4-0.1l0.2-0.3c0.1-0.1,0.3-0.4,2.3-0.4
									c1.1,0,4.6,0.1,4.7,1c0.1,0.4-0.2,0.4-1.4,0.6c-0.3,0-0.6,0.1-0.9,0.2L124.7,202.5L124.7,202.5z"/>
							</g>
						</g>
					</g>
					<g>
						<g>
							<g>
								<path class="st5" d="M111.4,207.5l-0.4-0.1c-0.3-0.1-2.5-0.9-2.9-1.1l-0.3-0.2l0.3-0.3c0.1-0.1,0.3-0.2,0.7-0.2
									c0.3,0,4.3,0.3,4.3,1.2c0,0.3-0.3,0.4-1.1,0.4c-0.2,0-0.4,0-0.5,0L111.4,207.5L111.4,207.5z"/>
							</g>
						</g>
					</g>
					<g>
						<g>
							<g>
								<path class="st5" d="M110.9,204.6l-0.4-0.1c-0.4-0.1-3.6-1.2-4-1.5l-0.3-0.2l0.3-0.3c0.1-0.1,0.4-0.2,0.8-0.2
									c1,0,5.9,0.6,5.9,1.6c0,0.4-0.3,0.4-1.4,0.4c-0.3,0-0.6,0-0.8,0L110.9,204.6L110.9,204.6z"/>
							</g>
						</g>
					</g>
					<g>
						<g>
							<g>
								<path class="st5" d="M185.3,202.2l-1.8-0.6c-0.5,0.1-1.1,0.2-2,0.2c-0.6,0-1.2,0-1.8,0s-1.3,0-1.9,0h-0.4l-0.1-0.6
									c0.2-0.1,0.3-0.2,0.5-0.3c0.2-0.2,0.4-0.4,0.9-0.4c0.4,0,0.8-0.1,1.2-0.2c0.4-0.1,0.9-0.3,1.4-0.3l0,0
									c0.6,0,1.1,0.2,1.4,0.5l1.7-0.5l2.1,0.7l-0.1,0.5c-0.1,0.3-0.1,0.4-0.4,0.6c-0.1,0.1-0.2,0.2-0.5,0.3L185.3,202.2
									L185.3,202.2z"/>
							</g>
						</g>
					</g>
					<g>
						<g>
							<g>
								<path class="st5" d="M124.5,213.2L124.5,213.2l-4.5-0.3c-1.9-0.1-3.4-1.1-4-2l-0.5-0.7h0.8c0.6,0,1.3-0.2,2.1-0.3
									c1.5-0.3,3.2-0.5,4.3,0c0.6,0.3,1.7,0.4,3.2,0.4c1.4,0,2.9-0.1,4.2-0.2c1.9-0.1,3.3-0.2,3.7,0l1,0.5l-1.1,0.3
									C133.7,210.8,126,213.1,124.5,213.2L124.5,213.2L124.5,213.2z"/>
							</g>
						</g>
					</g>
					<g>
						<g>
							<g>
								<path class="st5" d="M147,219.3c-0.4,0-0.9,0-1.3,0c-0.1,0-12.9-0.9-13.1-2.6v-0.4l0.4,0.2c0.6,0.3,2,0.7,3.4,0.7
									c0.9,0,1.6-0.2,2-0.5l0.2-0.1l0.1,0.2c0.1,0.1,0.1,0.3,0.2,0.4c0.1,0.2,0.1,0.5,0.2,0.5c0.7,0.4,1.7-0.2,2.5-0.8l0.1-0.1
									l0.1,0.1l1.3,0.7c0-0.3,0-0.5,0.1-0.8c0.1-0.6,0.1-1-0.2-2l-0.1-0.3h0.3c1,0,1.7,0.4,2.4,0.9c1,0.6,2.2,1.3,4.8,1.1
									c1.3,0.1,2.7,0.2,4.3,0.2c3,0,5.6-0.2,5.6-0.2l0.1,0.4C160.5,216.9,154.5,219.3,147,219.3L147,219.3z"/>
							</g>
						</g>
					</g>
					<g>
						<g>
							<g>
								<path class="st5" d="M170.7,215.1L170.7,215.1l-4.5-0.3c-1.8-0.1-3.4-1.1-4-2l-0.5-0.7h0.8c0.6,0,1.3-0.2,2.1-0.3
									c1.5-0.3,3.2-0.5,4.3,0c0.6,0.3,1.7,0.4,3.2,0.4c1.4,0,2.9-0.1,4.3-0.2c1.9-0.1,3.2-0.2,3.7,0l1,0.5l-1.1,0.3
									C179.9,212.8,172.2,215.1,170.7,215.1L170.7,215.1L170.7,215.1z"/>
							</g>
						</g>
					</g>
					<g>
						<g>
							<g>
								<path class="st5" d="M160.2,210.9L160.2,210.9l-2.9-0.2c-1.2-0.1-2.2-0.7-2.6-1.3l-0.3-0.4h0.5c0.4,0,0.9-0.1,1.3-0.2
									c1-0.2,2-0.3,2.7,0c0.4,0.2,1.1,0.3,2.1,0.3c0.9,0,1.9-0.1,2.7-0.1c1.2-0.1,2.1-0.1,2.4,0l0.6,0.3l-0.7,0.2
									C166,209.4,161.1,210.9,160.2,210.9L160.2,210.9L160.2,210.9z"/>
							</g>
						</g>
					</g>
					<g>
						<g>
							<g>
								<path class="st5" d="M160.8,207.4L160.8,207.4c-2.1,0-3.3,0-3.6-0.1c-0.7-0.2-1.3-0.5-1.8-0.6l-0.4-0.1
									c-0.9-0.3-1.5-1-1.7-1.6l-0.1-0.4l0.4,0.1c0.3,0.1,0.7,0.1,1.1,0.1c0.8,0.1,1.6,0.1,2.1,0.6c0.6,0.5,2.4,0.9,3.6,1.2
									c1.1,0.2,1.6,0.3,1.8,0.5l0.4,0.4H162C161.9,207.3,161.4,207.4,160.8,207.4L160.8,207.4z"/>
							</g>
						</g>
					</g>
					<g>
						<g>
							<g>
								<path class="st5" d="M150.3,203.4c-0.7,0-1.4-0.3-1.9-0.7l-0.3-0.3l0.4-0.1c0.3-0.1,0.7-0.2,1-0.4c0.7-0.3,1.5-0.6,2.1-0.4
									c0.7,0.2,2.5-0.2,3.8-0.6c0.8-0.2,1.4-0.4,1.7-0.4h0.2l0.5,0.1l-0.5,0.3c-0.2,0.1-3.7,1.9-4.4,2h-0.4
									c-0.7,0.1-1.5,0.2-1.9,0.2C150.5,203.3,150.4,203.4,150.3,203.4L150.3,203.4z"/>
							</g>
						</g>
					</g>
					<g>
						<g>
							<g>
								<path class="st5" d="M177.4,210.9l0.6-0.8c0.3-0.4,1.2-0.7,3-1.4c2.2-0.8,5.1-2,6-3.1c0.8-1,2.2-1.3,3.5-1.6
									c0.7-0.2,1.3-0.3,1.8-0.5l0.7-0.3l-0.1,0.7c-0.2,1-1,2.4-2.5,3.2l-3.6,2c-1.2,0.5-8.3,1.7-8.4,1.7L177.4,210.9L177.4,210.9z
									"/>
							</g>
						</g>
					</g>
					<g>
						<g>
							<g>
								<path class="st5" d="M188,202.2l0.5-0.5c0.2-0.3,0.9-0.5,2.2-1c1.5-0.6,3.6-1.4,4.3-2.2c0.6-0.7,1.5-0.9,2.5-1.2
									c0.5-0.1,0.9-0.2,1.3-0.4l0.5-0.2l-0.1,0.5c-0.1,0.7-0.8,1.7-1.8,2.3l-2.5,1.4c-0.8,0.4-5.9,1.2-6,1.2L188,202.2L188,202.2z
									"/>
							</g>
						</g>
					</g>
					<g>
						<g>
							<g>
								<path class="st5" d="M190.9,198.8l0.2-0.5c0.1-0.2,0.6-0.6,1.4-1.3c1.1-0.8,2.5-1.9,2.8-2.6c0.3-0.7,1-1,1.6-1.4
									c0.3-0.2,0.7-0.4,0.9-0.6l0.3-0.3v0.4c0,0.6-0.2,1.5-0.9,2.1l-1.6,1.6c-0.6,0.5-4.3,2.2-4.3,2.2L190.9,198.8L190.9,198.8z"
									/>
							</g>
						</g>
					</g>
				</g>
			</g>
		</g>
	</g>
</g>
</svg>
